<?xml version="1.0" encoding="UTF-8" standalone="no"?>
<svg
   xmlns:dc="http://purl.org/dc/elements/1.1/"
   xmlns:cc="http://creativecommons.org/ns#"
   xmlns:rdf="http://www.w3.org/1999/02/22-rdf-syntax-ns#"
   xmlns:svg="http://www.w3.org/2000/svg"
   xmlns="http://www.w3.org/2000/svg"
   viewBox="0 0 793.70667 1122.52"
   height="1122.52"
   width="793.70667"
   xml:space="preserve"
   id="svg2"
   version="1.1"><metadata
     id="metadata8"><rdf:RDF><cc:Work
         rdf:about=""><dc:format>image/svg+xml</dc:format><dc:type
           rdf:resource="http://purl.org/dc/dcmitype/StillImage" /></cc:Work></rdf:RDF></metadata><defs
     id="defs6"><clipPath
       id="clipPath18"
       clipPathUnits="userSpaceOnUse"><path
         id="path16"
         d="M 0,841.89 H 595.28 V 0 H 0 Z" /></clipPath><linearGradient
       id="linearGradient44"
       spreadMethod="pad"
       gradientTransform="matrix(33.335937,0,0,-33.335937,301.875,215.23535)"
       gradientUnits="userSpaceOnUse"
       y2="0"
       x2="1"
       y1="0"
       x1="0"><stop
         id="stop40"
         offset="0"
         style="stop-opacity:1;stop-color:#5e5e60" /><stop
         id="stop42"
         offset="1"
         style="stop-opacity:1;stop-color:#2d2c2e" /></linearGradient><linearGradient
       id="linearGradient64"
       spreadMethod="pad"
       gradientTransform="matrix(474.63623,0,0,-474.63623,80.369629,319.32031)"
       gradientUnits="userSpaceOnUse"
       y2="0"
       x2="1"
       y1="0"
       x1="0"><stop
         id="stop60"
         offset="0"
         style="stop-opacity:1;stop-color:#c7c8ca" /><stop
         id="stop62"
         offset="1"
         style="stop-opacity:1;stop-color:#5e5e60" /></linearGradient><linearGradient
       id="linearGradient84"
       spreadMethod="pad"
       gradientTransform="matrix(-268.25195,-3.05e-5,-3.05e-5,268.25195,446.4043,356.24121)"
       gradientUnits="userSpaceOnUse"
       y2="0"
       x2="1"
       y1="0"
       x1="0"><stop
         id="stop80"
         offset="0"
         style="stop-opacity:1;stop-color:#2d2c2e" /><stop
         id="stop82"
         offset="1"
         style="stop-opacity:1;stop-color:#5e5e60" /></linearGradient><clipPath
       id="clipPath94"
       clipPathUnits="userSpaceOnUse"><path
         id="path92"
         d="M 0,841.89 H 595.28 V 0 H 0 Z" /></clipPath><linearGradient
       id="linearGradient120"
       spreadMethod="pad"
       gradientTransform="matrix(268.25293,0,0,-268.25293,190.01172,356.24121)"
       gradientUnits="userSpaceOnUse"
       y2="0"
       x2="1"
       y1="0"
       x1="0"><stop
         id="stop116"
         offset="0"
         style="stop-opacity:1;stop-color:#2d2c2e" /><stop
         id="stop118"
         offset="1"
         style="stop-opacity:1;stop-color:#5e5e60" /></linearGradient><clipPath
       id="clipPath130"
       clipPathUnits="userSpaceOnUse"><path
         id="path128"
         d="M 0,841.89 H 595.28 V 0 H 0 Z" /></clipPath></defs><g
     transform="matrix(1.3333333,0,0,-1.3333333,0,1122.52)"
     id="g10"><g
       id="g12"><g
         clip-path="url(#clipPath18)"
         id="g14"><g
           transform="translate(137.7793,591.2095)"
           id="g20"><path
             id="path22"
             style="fill:#ffffff;fill-opacity:1;fill-rule:nonzero;stroke:none"
             d="m 0,0 c 3.045,1.353 6.189,2.274 9.4,2.615 1.444,0.153 2.968,0.231 4.53,0.231 14.193,0 30.294,-6.206 42.089,-11.907 -2.382,-0.283 -4.621,-0.476 -6.707,-0.578 -2.018,-0.099 -4.051,-0.15 -6.045,-0.15 -20.281,0 -32.633,5.176 -32.743,5.223 z m 315.922,-117.313 c 1.719,0.217 3.285,1.149 4.295,2.59 l 4.15,5.93 c 0.957,1.368 1.324,3.092 1.004,4.729 -0.318,1.633 -1.301,3.091 -2.701,4.005 l -15.973,10.382 c 0.049,-0.002 0.1,-0.004 0.147,-0.007 13.89,-0.764 19.824,-9.139 21.648,-12.479 -0.896,-14.546 -9.258,-31.634 -13.349,-39.211 l -12.498,3.015 z m -19.809,26.654 -4.152,-7.412 c -0.893,-1.594 -1.018,-3.491 -0.406,-5.16 l -0.534,-0.87 -1.482,-0.742 v -1.683 l -3.4,-5.564 -0.789,-1.177 v -0.119 l -11.079,-18.129 -7.587,1.83 5.386,1.235 -10.353,6.408 c -0.182,0.113 -18.379,11.47 -24.227,23.171 -2.049,4.095 -2.701,8.778 -2.738,12.968 5.523,-3.798 14.234,-5.527 27.348,-5.527 7.254,0 14.937,0.505 22.369,0.993 4.308,0.284 8.459,0.555 12.293,0.713 -0.242,-0.291 -0.463,-0.601 -0.649,-0.935 m -215.41,-6.468 c -1.995,-3.56 -5.154,-5.743 -9.793,-8.733 l -1.606,2.63 c 0.611,1.671 0.485,3.566 -0.407,5.158 l -0.987,1.762 c 0.577,0.008 1.164,0.013 1.757,0.013 5.914,0 9.237,-0.435 11.036,-0.83 m 336.981,-106.645 c -0.147,0.013 -14.485,1.319 -37.553,3.107 v 14.464 c 0,16.348 -12.449,32.157 -28.342,35.989 l -22.5,5.427 c 10,8.071 26.897,22.38 42.899,39.062 29.468,30.723 43.695,56.506 42.289,76.633 -3.219,46.041 -79.901,59.407 -96.664,61.782 -4.641,6.781 -9.497,10.423 -14.454,10.834 -0.486,0.04 -1.019,0.063 -1.593,0.063 -3.057,0 -6.537,-0.607 -10.024,-1.705 -4.732,10.45 -24.453,15.926 -32.806,17.81 -11.35,2.56 -34.217,3.27 -60.696,4.092 -23.74,0.736 -50.647,1.571 -74.604,3.883 C 74.48,72.413 35.179,91.187 34.788,91.376 l -12.642,6.11 5.933,-12.724 c 0.429,-0.92 10.652,-22.665 23.619,-34.943 3.059,-2.897 6.363,-5.644 9.662,-8.17 -6.366,0.429 -11.63,0.706 -16.899,0.706 -7.13,0 -13.796,-0.506 -22.288,-1.694 C -2.962,37.147 -18.88,25.246 -28.898,12.536 l -1.284,0.557 1.091,-0.802 c -3.884,-4.969 -6.872,-10.055 -9.159,-14.805 -8.753,-18.171 -9.283,-35.042 -9.301,-35.751 l -0.548,-21.322 9.968,18.859 c 0.167,0.315 13.211,24.673 31.122,36.792 l 12.583,-9.246 c 0.892,-0.656 22.128,-16.059 46.012,-16.059 1.015,0 2.035,0.028 3.032,0.084 9.888,0.558 19.276,2.377 28.354,4.136 3.617,0.701 7.143,1.384 10.634,1.98 -6.857,-6.684 -16.84,-13.292 -30.159,-14.565 -2.785,-0.267 -5.519,-0.401 -8.127,-0.402 -12.248,0 -20.397,2.87 -28.278,5.647 -7.22,2.543 -14.041,4.931 -22.588,4.511 -20.1,-1 -33.382,-17.385 -33.938,-18.083 l -24.017,-30.133 30.914,23.007 c 6.761,5.032 18.671,12.119 23.981,12.119 0.095,0 0.189,-0.003 0.281,-0.009 1.576,-0.104 3.666,-0.704 6.059,-1.605 -3.371,-0.95 -6.558,-2.187 -9.546,-3.707 -12.82,-6.523 -20.151,-19.747 -26.62,-31.414 -4.157,-7.499 -8.084,-14.582 -12.757,-18.679 -12.002,-10.521 -30.188,-16.006 -30.367,-16.059 l -40.223,-11.895 41.894,2.106 c 0.018,0.001 1.893,0.094 5.003,0.094 8.7,0 25.61,-0.691 41.104,-5.314 3.445,-1.028 6.928,-1.55 10.352,-1.55 13.059,0 23.738,7.27 35.043,14.968 4.446,3.026 8.966,6.104 13.758,8.829 -0.013,-1.283 0.374,-2.557 1.116,-3.618 l 4.148,-5.926 c 1.007,-1.442 2.575,-2.378 4.297,-2.595 l 1.134,-1.797 C 25.406,-128.263 4.89,-134.012 4.668,-134.073 l -27.764,-7.723 28.742,-2.081 c 0.135,-0.01 10.143,-0.725 24.626,-1.101 L 9,-150.175 c -15.86,-3.875 -28.284,-19.7 -28.284,-36.026 v -14.445 c -23.447,-1.782 -38.417,-3.111 -38.571,-3.125 l -4.979,-0.445 1.953,-21.768 4.977,0.441 c 0.362,0.032 3.514,0.309 8.894,0.759 -0.571,-0.537 -1.121,-1.096 -1.63,-1.698 -1.758,-2.074 -3.087,-4.461 -3.951,-7.095 -0.869,-2.653 -1.19,-5.448 -0.953,-8.305 l 2.653,-32.09 c 0.236,-2.861 1.012,-5.566 2.305,-8.036 1.282,-2.454 2.985,-4.591 5.062,-6.351 0.412,-0.349 0.844,-0.667 1.28,-0.981 -2.352,-0.194 -4.408,-0.365 -6.13,-0.509 l -4.981,-0.419 1.431,-17.053 4.982,0.417 c 9.516,0.796 19.346,1.581 29.28,2.337 3.221,-11.413 11.005,-22.243 20.308,-27.879 l 45.217,-27.392 c -0.342,-1.333 -0.554,-2.687 -0.614,-4.039 -0.452,-10.256 8.206,-15.408 12.847,-16.7 l 0.435,-0.121 0.45,-0.041 c 0.14,-0.012 2.947,-0.268 7.197,-0.581 1.012,-0.867 2.293,-1.342 3.668,-1.342 l 2.067,0.104 c 0.644,-0.283 1.34,-0.446 2.053,-0.472 l 10.526,-0.371 h 0.265 l 71.167,-43.113 c 6.273,-3.8 14.312,-5.892 22.639,-5.892 8.197,0 16.126,2.036 22.326,5.733 l 72.648,43.313 9.354,0.33 c 0.711,0.026 1.406,0.188 2.05,0.472 l 1.807,-0.097 0.297,-0.007 c 1.353,0 2.643,0.482 3.637,1.343 4.248,0.313 7.054,0.568 7.195,0.58 l 0.449,0.041 0.436,0.121 c 4.64,1.292 13.299,6.444 12.847,16.7 -0.045,0.997 -0.173,1.995 -0.373,2.984 l 44.809,26.712 c 10.021,5.975 18.023,17.46 20.904,29.56 12.131,-0.944 21.664,-1.74 27.764,-2.262 l 4.982,-0.428 1.459,17.054 -4.982,0.426 c -1.078,0.093 -2.291,0.197 -3.623,0.309 l 2.056,24.054 c 0.243,2.842 -0.048,5.587 -0.865,8.195 1.246,2.42 1.996,5.049 2.235,7.846 l 0.691,8.067 c 0.242,2.859 -0.07,5.653 -0.934,8.309 -0.855,2.635 -2.177,5.025 -3.929,7.103 -0.461,0.548 -0.951,1.067 -1.465,1.562 8.42,-0.708 13.246,-1.147 13.344,-1.156 l 4.99,-0.467 1.988,21.78 z" /></g><g
           transform="translate(301.875,211.6182)"
           id="g24"><path
             id="path26"
             style="fill:#2d2c2e;fill-opacity:1;fill-rule:nonzero;stroke:none"
             d="m 0,0 v -3.404 c 0,-1.932 6.494,-4.741 16.668,-4.741 10.176,0 16.668,2.809 16.668,4.741 V 0 C 29.914,-2.303 23.268,-3.496 16.668,-3.496 10.069,-3.496 3.424,-2.303 0,0" /></g></g></g><g
       id="g28"><g
         id="g30"><g
           id="g36"><g
             id="g38"><path
               id="path46"
               style="fill:url(#linearGradient44);stroke:none"
               d="m 301.875,215.235 c 0,-1.933 6.494,-4.74 16.668,-4.74 v 0 c 10.176,0 16.668,2.807 16.668,4.74 v 0 c 0,1.932 -6.492,4.74 -16.668,4.74 v 0 c -10.174,0 -16.668,-2.808 -16.668,-4.74" /></g></g></g></g><g
       id="g48"><g
         id="g50"><g
           id="g56"><g
             id="g58"><path
               id="path66"
               style="fill:url(#linearGradient64);stroke:none"
               d="m 298.153,472.872 -72.679,-17.756 11.685,-19.123 66.062,16.141 c 3.523,0.86 8.606,1.354 13.94,1.354 v 0 c 5.24,0 10.232,-0.478 13.694,-1.314 v 0 l 68.235,-16.457 11.695,19.139 -74.926,18.071 c -5.103,1.232 -11.744,1.91 -18.698,1.91 v 0 c -7.071,0 -13.821,-0.698 -19.008,-1.965 M 147.965,436.177 c -13.721,-3.353 -24.47,-17.043 -24.47,-31.168 v 0 -19.083 C 97.665,383.991 80.85,382.501 80.37,382.458 v 0 l 1.055,-11.813 c 0.596,0.053 26.424,2.342 63.419,4.942 v 0 6.303 5.583 17.536 c 0,4.332 3.98,9.402 8.189,10.429 v 0 l 59.136,14.45 -12.026,19.037 z m 156.381,11.348 -64.591,-15.781 6.787,-11.107 c 0.668,-1.096 0.865,-2.433 0.542,-3.669 v 0 c -0.155,-0.602 -0.429,-1.163 -0.798,-1.655 v 0 l 12.536,-21.594 c -7.039,-0.253 -14.104,-0.539 -21.149,-0.851 v 0 l -8.124,13.338 c -1.562,0.065 -2.978,0.879 -3.817,2.209 v 0 l -10.89,17.242 -60.684,-14.826 c -2.092,-0.512 -4.57,-3.668 -4.57,-5.822 v 0 -17.205 -4.635 -7.252 c 48.999,3.387 115.665,7.158 169.71,7.158 v 0 c 53.917,0 119.43,-3.754 167.518,-7.134 v 0 7.22 4.668 17.18 c 0,2.138 -2.46,5.261 -4.537,5.764 v 0 l -60.848,14.675 -10.746,-17.033 c -0.839,-1.33 -2.255,-2.144 -3.818,-2.209 v 0 l -8.082,-13.268 c -7.041,0.313 -14.107,0.598 -21.152,0.848 v 0 l 12.498,21.527 c -0.369,0.492 -0.644,1.057 -0.801,1.661 v 0 c -0.32,1.23 -0.123,2.566 0.543,3.659 v 0 l 6.618,10.831 -66.749,16.099 c -3.068,0.74 -7.772,1.182 -12.581,1.182 v 0 c -4.897,0 -9.689,-0.457 -12.815,-1.22 m 119.757,-17.842 59.288,-14.299 c 4.198,-1.014 8.169,-6.055 8.169,-10.375 v 0 -17.516 -5.636 -6.253 c 2.263,-0.162 4.484,-0.322 6.657,-0.481 v 0 l 0.002,0.022 1.88,-0.161 c 31.803,-2.338 53.291,-4.287 53.828,-4.339 v 0 l 1.079,11.813 c -0.467,0.043 -16.842,1.527 -42.096,3.457 v 0 19.094 c 0,14.141 -10.768,27.813 -24.513,31.127 v 0 l -52.271,12.608 z M 291.054,376.771 c 0.555,-0.434 1.09,-0.893 1.601,-1.382 v 0 c 1.964,-1.885 3.532,-4.119 4.663,-6.648 v 0 c 1.138,-2.55 1.747,-5.296 1.807,-8.162 v 0 l 0.985,-46.673 c 4.88,0.07 9.696,0.116 14.428,0.134 v 0 l 0.612,62.854 0.002,0.172 c -7.819,-0.028 -15.88,-0.13 -24.098,-0.295 m 68.131,-1.464 c 1.906,-1.942 3.405,-4.226 4.456,-6.788 v 0 c 1.059,-2.582 1.582,-5.346 1.555,-8.214 v 0 l -0.313,-32.198 c -0.028,-2.869 -0.605,-5.622 -1.715,-8.18 v 0 c -1.051,-2.429 -2.521,-4.59 -4.349,-6.443 v 0 c 8.769,-0.23 17.627,-0.523 26.479,-0.864 v 0 c -1.841,1.988 -3.271,4.302 -4.245,6.88 v 0 c -0.988,2.609 -1.436,5.387 -1.329,8.255 v 0 l 1.793,48.009 c -7.916,0.297 -15.82,0.553 -23.646,0.759 v 0 c 0.452,-0.388 0.894,-0.788 1.314,-1.216 m -126.621,-0.552 0.73,-15.853 0.231,-4.995 -4.995,-0.23 -7.282,-0.335 c 2.351,-0.95 4.475,-2.282 6.322,-3.966 v 0 c 2.01,-1.833 3.634,-4.029 4.827,-6.529 v 0 c 1.203,-2.521 1.879,-5.251 2.012,-8.115 v 0 l 0.368,-7.996 c 0.132,-2.866 -0.291,-5.647 -1.256,-8.267 v 0 c -0.943,-2.559 -2.335,-4.86 -4.13,-6.851 v 0 c 6.804,0.319 13.666,0.614 20.534,0.886 v 0 l -0.993,47.014 c -0.06,2.87 0.431,5.639 1.462,8.234 v 0 c 1.023,2.573 2.495,4.874 4.377,6.837 v 0 c 0.387,0.404 0.799,0.78 1.216,1.15 v 0 c -7.818,-0.292 -15.651,-0.623 -23.423,-0.984 m 173.428,-42.978 11.093,-0.415 4.997,-0.186 -0.187,-4.996 -0.569,-15.2 c 7.139,-0.37 14.171,-0.757 21.03,-1.157 v 0 c -0.128,0.137 -0.267,0.261 -0.392,0.402 v 0 c -1.805,2.034 -3.188,4.392 -4.109,7.002 v 0 c -0.928,2.63 -1.312,5.418 -1.139,8.284 v 0 l 1.933,32.143 c 0.173,2.86 0.887,5.579 2.126,8.087 v 0 c 1.23,2.485 2.885,4.658 4.919,6.459 v 0 c 0.15,0.132 0.312,0.245 0.464,0.372 v 0 c -12.381,0.74 -25.353,1.449 -38.565,2.079 v 0 z m -239.256,39.277 4.041,-62.704 c 4.729,0.301 9.586,0.602 14.548,0.9 v 0 l -0.699,15.175 -0.23,4.995 4.995,0.23 7.197,0.331 c -2.3,0.962 -4.381,2.267 -6.196,3.888 v 0 c -2.027,1.808 -3.665,4.002 -4.865,6.519 v 0 c -1.203,2.519 -1.878,5.25 -2.011,8.115 v 0 l -0.372,8.088 c -0.133,2.863 0.29,5.645 1.255,8.266 v 0 c 0.959,2.599 2.373,4.935 4.207,6.945 v 0 c 0.209,0.229 0.439,0.435 0.659,0.654 v 0 c -7.777,-0.461 -15.317,-0.932 -22.529,-1.402 m 314.039,-15.936 -0.187,-3.092 h 10e-4 l -0.301,-4.991 -0.969,-16.07 -0.181,-2.998 -0.299,-4.99 -0.926,-15.397 c 2.601,-0.177 5.157,-0.352 7.648,-0.525 v 0 0.005 l 4.018,-0.287 2.782,-0.195 4.062,47.545 1.284,15.022 c -2.151,0.156 -4.334,0.315 -6.574,0.475 v 0 l -2.072,0.148 -2.666,0.187 c -1.545,0.109 -3.117,0.218 -4.709,0.328 v 0 z m -355.752,13.014 1.268,-15.327 0.412,-4.984 0.255,-3.085 1.327,-16.044 0.248,-2.995 0.411,-4.983 1.254,-15.151 c 4.259,0.313 8.726,0.636 13.391,0.964 v 0 0.003 l 1.145,0.079 -4.038,62.669 c -5.511,-0.393 -10.751,-0.778 -15.673,-1.146 m 24.565,-67.202 v -3.073 -0.168 c 0,-0.268 0.022,-0.548 0.055,-0.837 v 0 c 0.007,-0.066 0.021,-0.136 0.03,-0.205 v 0 c 0.033,-0.234 0.073,-0.472 0.124,-0.716 v 0 c 0.012,-0.061 0.028,-0.122 0.042,-0.182 v 0 c 0.06,-0.269 0.132,-0.541 0.213,-0.818 v 0 c 0.011,-0.038 0.022,-0.075 0.034,-0.112 v 0 c 0.093,-0.312 0.2,-0.624 0.317,-0.943 v 0 c 0.002,-0.008 0.004,-0.016 0.007,-0.023 v 0 h 0.001 c 1.26,-3.397 3.772,-7.071 6.126,-8.498 v 0 l 59.908,-36.294 c 0.258,0.043 0.52,0.065 0.784,0.065 v 0 c 0.165,0 0.332,-0.009 0.499,-0.028 v 0 l 8.6,-1.111 8.764,-0.73 c 0.038,-0.002 0.075,-0.006 0.113,-0.01 v 0 c 0.067,-0.008 0.133,-0.015 0.198,-0.025 v 0 l 4.12,-0.581 c 0.497,0.172 1.026,0.262 1.564,0.262 v 0 c 0.098,0 0.3,-0.008 0.397,-0.018 v 0 l 8.075,-0.821 c 0.015,0 0.032,-0.002 0.047,-0.004 v 0 l 5.756,-0.645 c 0.523,0.2 1.081,0.303 1.648,0.303 v 0 h 8.821 c 1.375,0 2.68,-0.596 3.582,-1.635 v 0 c 0.01,-0.012 0.02,-0.022 0.029,-0.034 v 0 c 9.125,0.684 16.117,2.39 20.324,4.974 v 0 c 5.992,3.681 9.305,9.431 9.337,9.489 v 0 l 9.961,17.157 -15.241,25.019 c 6.402,0.118 12.704,0.194 18.873,0.227 v 0 l 5.513,-9.494 5.517,9.506 c 6.176,-0.024 12.487,-0.094 18.89,-0.201 v 0 l -15.263,-25.057 9.938,-17.119 c 0.055,-0.096 3.367,-5.846 9.361,-9.527 v 0 c 4.206,-2.584 11.198,-4.29 20.323,-4.974 v 0 c 0.009,0.012 0.017,0.024 0.029,0.034 v 0 c 0.901,1.039 2.207,1.635 3.582,1.635 v 0 h 8.82 c 0.567,0 1.125,-0.103 1.649,-0.303 v 0 l 5.755,0.645 c 0.016,0.002 0.032,0.004 0.048,0.004 v 0 l 8.005,0.816 c 0.119,0.012 0.348,0.023 0.467,0.023 v 0 c 0.537,0 1.064,-0.09 1.563,-0.262 v 0 l 4.166,0.586 c 0.05,0.008 0.101,0.016 0.154,0.02 v 0 c 0.037,0.004 0.075,0.008 0.111,0.01 v 0 l 8.764,0.73 8.517,1.102 c 0.214,0.026 0.421,0.038 0.625,0.038 v 0 c 0.67,0 1.286,-0.137 1.879,-0.396 v 0 l 0.105,0.02 58.688,34.984 c 2.753,1.643 5.724,6.357 6.631,10.104 v 0 0.007 c 0.083,0.337 0.145,0.665 0.191,0.983 v 0 c 0.007,0.043 0.014,0.088 0.02,0.131 v 0 c 0.044,0.33 0.072,0.649 0.072,0.949 v 0 1.924 3.119 c -48.061,3.373 -113.394,7.1 -167.518,7.1 v 0 c -54.296,0 -120.733,-3.74 -169.71,-7.122 m 201.697,-12.168 -1.392,0.032 -2.799,0.063 0.246,11.197 2.801,-0.062 1.39,-0.032 c 0.385,-0.008 0.746,-0.088 1.084,-0.238 v 0 c 0.338,-0.153 0.631,-0.36 0.883,-0.621 v 0 c 0.25,-0.262 0.443,-0.565 0.58,-0.908 v 0 c 0.135,-0.346 0.199,-0.71 0.192,-1.094 v 0 l -0.124,-5.598 c -0.009,-0.385 -0.09,-0.744 -0.24,-1.084 v 0 c -0.152,-0.338 -0.359,-0.631 -0.621,-0.881 v 0 c -0.26,-0.252 -0.564,-0.445 -0.908,-0.58 v 0 c -0.325,-0.129 -0.669,-0.195 -1.03,-0.195 v 0 c -0.021,0 -0.041,10e-4 -0.062,10e-4 m 11.129,-0.277 -1.393,0.04 c -0.382,0.01 -0.744,0.091 -1.081,0.244 v 0 c -0.337,0.153 -0.629,0.36 -0.88,0.624 v 0 c -0.247,0.264 -0.439,0.567 -0.574,0.913 v 0 c -0.135,0.345 -0.197,0.709 -0.187,1.093 v 0 l 0.154,5.598 c 0.01,0.383 0.092,0.745 0.246,1.082 v 0 c 0.153,0.336 0.361,0.631 0.623,0.879 v 0 c 0.264,0.248 0.566,0.441 0.912,0.575 v 0 c 0.322,0.126 0.662,0.188 1.017,0.188 v 0 c 0.025,0 0.051,0 0.077,-10e-4 v 0 l 1.393,-0.039 c 0.382,-0.01 0.744,-0.092 1.08,-0.247 v 0 c 0.338,-0.152 0.631,-0.36 0.881,-0.622 v 0 c 0.247,-0.264 0.439,-0.567 0.574,-0.913 v 0 c 0.135,-0.346 0.197,-0.708 0.185,-1.093 v 0 l -0.152,-5.598 c -0.01,-0.385 -0.092,-0.744 -0.246,-1.082 v 0 c -0.152,-0.338 -0.361,-0.631 -0.623,-0.879 v 0 c -0.264,-0.25 -0.568,-0.442 -0.912,-0.576 v 0 c -0.321,-0.125 -0.66,-0.187 -1.015,-0.187 v 0 c -0.026,0 -0.052,0 -0.079,0.001 m 6.953,-0.197 0.267,8.394 0.09,2.799 2.799,-0.09 1.391,-0.042 c 0.383,-0.014 0.744,-0.096 1.08,-0.252 v 0 c 0.338,-0.155 0.629,-0.364 0.877,-0.627 v 0 c 0.248,-0.264 0.438,-0.571 0.57,-0.917 v 0 c 0.133,-0.345 0.194,-0.709 0.182,-1.093 v 0 l -0.045,-1.407 c -0.015,-0.501 -0.154,-0.962 -0.412,-1.38 v 0 c 0.232,-0.434 0.34,-0.907 0.322,-1.418 v 0 l -0.132,-4.191 -2.799,0.089 0.132,4.189 -1.391,0.045 -0.132,-4.189 z m 12.527,-0.412 0.299,8.394 -1.39,0.05 0.099,2.799 1.391,-0.05 2.799,-0.099 1.406,-0.051 -0.099,-2.799 -1.407,0.051 -0.299,-8.394 z m 8.028,-0.289 0.33,8.392 0.111,2.799 2.797,-0.111 1.879,-5.533 2.311,5.369 2.796,-0.112 -0.109,-2.796 -0.332,-8.395 -2.797,0.111 0.147,3.725 -1.537,-3.67 -1.409,0.055 -1.244,3.781 -0.146,-3.727 z m 18.139,-0.738 -1.392,0.058 c -0.384,0.017 -0.743,0.104 -1.077,0.264 v 0 c -0.336,0.158 -0.625,0.371 -0.869,0.636 v 0 c -0.247,0.269 -0.432,0.575 -0.563,0.923 v 0 c -0.128,0.346 -0.185,0.713 -0.168,1.095 v 0 l 0.362,8.393 2.796,-0.121 -0.361,-8.393 1.391,-0.059 0.361,8.393 2.797,-0.121 -0.361,-8.392 c -0.016,-0.384 -0.104,-0.743 -0.262,-1.079 v 0 c -0.158,-0.334 -0.372,-0.622 -0.639,-0.869 v 0 c -0.266,-0.244 -0.572,-0.431 -0.92,-0.561 v 0 c -0.307,-0.113 -0.627,-0.171 -0.961,-0.171 v 0 c -0.043,0 -0.089,0.002 -0.134,0.004 m 6.934,-0.305 0.386,8.392 0.129,2.797 2.796,-0.128 1.219,-3.774 0.172,3.709 2.797,-0.129 -0.387,-8.39 -0.129,-2.798 -2.797,0.129 -1.218,3.787 -0.172,-3.724 z m 15.331,-0.721 -1.391,0.068 -2.797,0.137 0.546,11.186 2.797,-0.135 1.39,-0.068 c 0.383,-0.02 0.742,-0.11 1.076,-0.27 v 0 c 0.334,-0.16 0.624,-0.375 0.866,-0.643 v 0 c 0.244,-0.267 0.427,-0.576 0.556,-0.923 v 0 c 0.127,-0.348 0.18,-0.715 0.162,-1.098 v 0 l -0.273,-5.594 c -0.018,-0.382 -0.108,-0.742 -0.268,-1.076 v 0 c -0.162,-0.334 -0.374,-0.621 -0.644,-0.865 v 0 c -0.268,-0.244 -0.576,-0.427 -0.924,-0.554 v 0 c -0.305,-0.114 -0.623,-0.168 -0.954,-0.168 v 0 c -0.047,0 -0.094,0.001 -0.142,0.003 m 16.926,-0.861 c -0.383,0.019 -0.742,0.111 -1.076,0.273 v 0 c -0.332,0.162 -0.619,0.377 -0.861,0.646 v 0 c -0.242,0.27 -0.428,0.579 -0.553,0.926 v 0 c -0.125,0.351 -0.178,0.715 -0.158,1.098 v 0 l 0.297,5.594 c 0.018,0.383 0.11,0.741 0.273,1.075 v 0 c 0.162,0.334 0.376,0.621 0.646,0.863 v 0 c 0.27,0.242 0.578,0.425 0.926,0.55 v 0 c 0.299,0.108 0.61,0.163 0.933,0.163 v 0 c 0.055,0 0.109,-10e-4 0.165,-0.004 v 0 l 2.797,-0.149 -0.149,-2.795 -2.797,0.148 -0.074,-1.405 2.797,-0.149 -0.149,-2.797 -2.796,0.148 -0.072,-1.39 2.794,-0.147 -0.148,-2.797 z m 16.682,-0.914 -2.635,2.955 0.482,8.387 2.795,-0.16 -0.482,-8.387 1.39,-0.081 0.481,8.388 2.796,-0.162 -0.482,-8.386 -2.955,-2.634 z m -8.327,0.464 c -0.394,0.022 -0.72,0.177 -0.977,0.461 v 0 c -0.257,0.287 -0.374,0.624 -0.352,1.006 v 0 c 0.02,0.395 0.175,0.72 0.462,0.977 v 0 c 0.263,0.237 0.574,0.355 0.93,0.355 v 0 c 0.029,0 0.059,-10e-4 0.09,-0.003 v 0 c 0.384,-0.022 0.703,-0.174 0.96,-0.461 v 0 c 0.257,-0.287 0.374,-0.627 0.352,-1.021 v 0 c -0.02,-0.384 -0.174,-0.704 -0.461,-0.96 v 0 c -0.264,-0.238 -0.569,-0.356 -0.916,-0.356 v 0 c -0.029,0 -0.058,0.001 -0.088,0.002 m 16.499,-0.541 c -0.395,0.021 -0.719,0.175 -0.977,0.46 v 0 c -0.256,0.288 -0.373,0.623 -0.353,1.007 v 0 c 0.023,0.394 0.175,0.718 0.462,0.976 v 0 c 0.265,0.236 0.574,0.355 0.931,0.355 v 0 c 0.03,0 0.06,-0.001 0.091,-0.004 v 0 c 0.382,-0.02 0.703,-0.174 0.959,-0.461 v 0 c 0.258,-0.287 0.375,-0.626 0.353,-1.021 v 0 c -0.021,-0.383 -0.176,-0.703 -0.461,-0.959 v 0 c -0.265,-0.238 -0.571,-0.356 -0.918,-0.356 v 0 c -0.029,0 -0.058,10e-4 -0.087,0.003 m 19.454,12.876 v -0.938 c 0,-0.377 -0.023,-0.768 -0.065,-1.166 v 0 c -0.003,-0.024 -0.007,-0.047 -0.01,-0.07 v 0 c -0.042,-0.385 -0.102,-0.775 -0.179,-1.174 v 0 c -0.998,-5.201 -4.886,-11.4 -8.976,-13.84 v 0 l -52.303,-31.178 c 0.127,-0.117 0.258,-0.23 0.367,-0.357 v 0 c 0.663,0.037 1.204,0.054 1.644,0.054 v 0 c 0.292,0 0.54,-0.008 0.75,-0.023 v 0 c 4.829,-0.312 12.079,-6.142 15.398,-13.705 v 0 l 45.078,26.873 c 10.072,6.006 17.88,18.633 19.355,30.598 v 0 c 13.951,-1.071 25.123,-1.999 32.299,-2.613 v 0 l 0.607,7.09 c -10.594,0.908 -29.875,2.497 -53.965,4.218 v 0 z m -401.735,-0.469 0.595,-7.09 c 7.444,0.623 19.085,1.574 33.609,2.664 v 0 c 1.975,-11.416 9.469,-23.146 18.987,-28.912 v 0 l 45.646,-27.652 c 3.483,7.102 10.338,12.467 14.968,12.767 v 0 c 0.209,0.014 0.459,0.022 0.753,0.022 v 0 c 0.439,0 0.978,-0.016 1.638,-0.053 v 0 c 0.166,0.19 0.349,0.367 0.547,0.533 v 0 c 0.21,0.17 0.441,0.303 0.672,0.436 v 0 l -53.162,32.205 c -3.641,2.206 -7.127,7.406 -8.553,12.216 v 0 h 0.004 c -0.434,1.459 -0.685,2.884 -0.685,4.175 v 0 2.912 c -24.519,-1.723 -44.195,-3.313 -55.019,-4.223 m 260.13,-4.785 1.391,-0.03 0.125,5.598 -1.393,0.032 z m 11.143,-0.27 1.392,-0.039 0.152,5.598 -1.39,0.039 z m 11.29,3.863 1.391,-0.045 0.045,1.409 -1.39,0.045 z m 56.682,-6.498 1.391,-0.068 0.274,5.594 -1.391,0.068 z M 294.962,222.495 c -0.983,-1.504 -3.259,-4.897 -4.501,-6.076 v 0 c -0.845,-0.799 -2.042,-1.924 -14.596,-3.354 v 0 l 35.948,-21.777 c 1.06,-0.643 3.405,-1.391 6.53,-1.391 v 0 c 3.061,0 5.361,0.725 6.401,1.346 v 0 l 36.481,21.747 c -13.188,1.464 -14.411,2.617 -15.269,3.431 v 0 c -1.243,1.177 -3.519,4.57 -4.438,5.974 v 0 l -23.309,38.262 z m 4.542,-14.281 v 7.021 c 0,4.67 9.578,7.112 19.039,7.112 v 0 c 9.463,0 19.041,-2.442 19.041,-7.112 v 0 -7.021 c 0,-4.67 -9.578,-7.112 -19.041,-7.112 v 0 c -9.461,0 -19.039,2.442 -19.039,7.112 m -33.536,3.876 c -0.788,-1.087 -2.025,-1.818 -3.448,-1.936 v 0 l -8.974,-0.743 c -0.097,-0.008 -0.292,-0.015 -0.39,-0.015 v 0 h -5.076 l -7.9,-0.366 c -0.021,-0.001 -0.042,-0.001 -0.065,-0.001 v 0 l -7.417,-0.319 65.596,-39.739 c 5.501,-3.331 12.621,-5.167 20.049,-5.167 v 0 c 7.308,0 14.327,1.785 19.764,5.027 v 0 l 66.815,39.83 c -0.029,0 -0.061,0 -0.084,0.002 v 0 l -8.543,0.366 c -0.02,0 -0.039,0 -0.058,0.001 v 0 l -7.899,0.366 h -5.077 c -0.083,0 -0.265,0.007 -0.349,0.013 v 0 l -9.012,0.743 c -1.425,0.12 -2.664,0.851 -3.453,1.938 v 0 c -0.437,0.04 -0.853,0.077 -1.273,0.114 v 0 l -41.998,-25.035 c -2.118,-1.264 -5.42,-2.016 -8.833,-2.016 v 0 c -3.48,0 -6.84,0.778 -8.988,2.078 v 0 l -41.337,25.041 c -0.662,-0.06 -1.344,-0.119 -2.05,-0.182" /></g></g></g></g><g
       id="g68"><g
         id="g70"><g
           id="g76"><g
             id="g78"><path
               id="path86"
               style="fill:url(#linearGradient84);stroke:none"
               d="m 196.482,498.522 -17.791,-11.564 c -0.27,-0.176 -0.457,-0.452 -0.517,-0.769 v 0 c -0.061,-0.315 0.008,-0.642 0.193,-0.905 v 0 l 4.15,-5.931 c 0.222,-0.317 0.585,-0.506 0.971,-0.506 v 0 h 2.015 l 5.035,-7.979 v -10e-4 l 5.175,-8.202 c 0,-0.001 0.001,-0.001 0.001,-0.002 v 0 l 3.75,-5.944 h 0.001 l 5.294,-8.393 h 0.001 l 3.538,-5.609 0.001,-10e-4 4.726,-7.493 c 0,-0.001 0.002,-0.001 0.002,-0.001 v 0 l 4.651,-7.373 0.586,-0.928 10.477,-16.607 c 0.224,-0.356 0.609,-0.553 1.004,-0.553 v 0 c 0.199,0 0.399,0.05 0.584,0.154 v 0 l 0.84,0.476 8.001,-13.117 c 4.352,0.188 8.708,0.364 13.059,0.528 v 0 l -10.636,18.49 1.485,0.84 c 0.28,0.156 0.483,0.422 0.564,0.733 v 0 c 0.081,0.312 0.031,0.642 -0.135,0.918 v 0 l -9.476,15.505 c 0,10e-4 0,10e-4 0,10e-4 v 0 l -2.934,4.801 -6.644,10.873 c -0.001,10e-4 0,10e-4 -0.001,0.002 v 0 l -4.217,6.9 -0.001,10e-4 -3.206,5.248 v 0.001 l -2.381,3.895 -6.359,10.408 c 0,0 0,10e-4 -0.001,10e-4 v 0 l -4.189,6.858 h -0.001 l -2.88,4.711 1.027,1.437 c 0.268,0.374 0.295,0.868 0.07,1.269 v 0 l -4.151,7.413 c -0.16,0.286 -0.432,0.494 -0.751,0.571 v 0 c -0.093,0.023 -0.188,0.035 -0.283,0.035 v 0 c -0.228,0 -0.453,-0.066 -0.647,-0.191 m -15.469,-12.884 15.699,10.204 3.164,-5.65 -0.898,-1.258 -13.142,-7.715 h -1.73 z m 18.379,0.789 1.753,-2.87 -9.025,-1.399 z m -11.268,-7.289 14.361,2.227 2.955,-4.836 -13.366,-3.653 z m 8.299,-13.153 -3.024,4.794 13.328,3.643 3.429,-5.613 -12.926,-4.103 z m 2.115,-3.353 12.893,4.093 2.745,-4.492 -13.171,-3.512 z m 3.794,-6.012 13.132,3.502 2.096,-3.428 -11.387,-6.164 z m 5.11,-8.1 11.355,6.148 2.913,-4.767 -11.942,-5.066 z m 3.607,-5.718 11.912,5.053 4.147,-6.787 -12.558,-3.815 z m 4.814,-7.63 12.522,3.806 2.864,-4.687 -12.074,-4.368 z m 4.607,-7.304 12.041,4.358 3.977,-6.508 -12.503,-3.419 z m 4.838,-7.666 12.466,3.41 3.069,-5.021 -4.311,-2.44 -6.576,-3.318 z m 74.237,-122.158 44.947,-73.699 c 0,0 2.834,-4.323 3.911,-5.342 v 0 c 2.493,-2.363 42.543,-5.234 56.478,-5.234 v 0 c 13.938,0 32.32,1.681 32.32,1.681 v 0 c 0,0 9.588,2.669 9.192,11.662 v 0 c -0.397,8.994 -9.292,17.197 -13.839,17.494 v 0 c -4.545,0.298 -38.25,-4.251 -53.468,-4.446 v 0 c -15.221,-0.198 -27.379,1.581 -34.297,5.829 v 0 c -6.918,4.251 -10.576,10.774 -10.576,10.774 v 0 l -24.015,41.411 c -3.512,-0.03 -7.067,-0.073 -10.653,-0.13" /></g></g></g></g><g
       id="g88"><g
         clip-path="url(#clipPath94)"
         id="g90"><g
           transform="translate(419.3027,243.5518)"
           id="g96"><path
             id="path98"
             style="fill:#ffffff;fill-opacity:1;fill-rule:nonzero;stroke:none"
             d="m 0,0 3.172,-29.18 4.349,-0.232 V 1.449 Z m -0.09,0.832 3.262,-30.615 -10.527,-0.369 h -6.522 l -3.658,28.714 3.361,-28.714 -8.674,0.369 -8.006,0.371 h -5.187 l -8.971,0.742 -3.705,26.092 h 8.821 l 0.073,-0.508 7.858,0.879 8.006,0.814 0.021,-0.523 6.354,0.895 8.895,0.742 z" /></g><g
           transform="translate(426.2305,214.7646)"
           id="g100"><path
             id="path102"
             style="fill:#2d2c2e;fill-opacity:1;fill-rule:nonzero;stroke:none"
             d="M 0,0 -3.221,0.174 -6.279,28.309 0,29.518 Z m -13.716,-0.752 -1.283,28.742 7.456,0.963 3.131,-29.379 z m -10.134,27.979 7.668,0.638 0.383,-8.559 0.897,-20.079 h -5.381 z m -5.353,-27.653 -1.051,26.785 5.225,0.735 3.258,-27.838 z m -8.007,0.369 -0.693,16.95 -0.374,9.154 6.822,0.693 1.062,-27.113 z m -5.245,0.026 -3.621,25.211 6.617,0.74 1.061,-25.951 z m -12.506,25.648 h 7.623 l 3.676,-25.59 -7.756,0.643 z M 0.971,30.693 C 0.834,30.807 0.652,30.854 0.48,30.818 l -6.887,-1.327 -0.021,0.191 c -0.017,0.158 -0.097,0.304 -0.222,0.402 -0.127,0.1 -0.288,0.148 -0.444,0.123 l -8.599,-1.111 h -0.001 l -8.867,-0.739 v -0.005 c -0.01,-0.001 -0.021,0.002 -0.033,0.002 l -5.732,-0.807 c -0.031,0.113 -0.083,0.219 -0.172,0.297 -0.123,0.107 -0.285,0.164 -0.449,0.14 l -8.006,-0.814 h -0.002 c -0.001,-0.001 -0.002,0 -0.004,0 l -7.298,-0.816 c -0.067,0.259 -0.294,0.449 -0.567,0.449 h -8.821 c -0.171,0 -0.335,-0.074 -0.447,-0.205 -0.113,-0.129 -0.164,-0.301 -0.14,-0.473 l 3.707,-26.092 c 0.039,-0.275 0.261,-0.484 0.537,-0.508 l 8.97,-0.74 c 0.016,-0.002 0.032,-0.002 0.049,-0.002 h 5.16 l 8.006,-0.371 h 0.002 l 8.674,-0.371 h 0.025 c 0.049,0 0.094,0.018 0.14,0.029 0.051,-0.014 0.103,-0.029 0.157,-0.029 h 6.522 0.021 l 10.526,0.371 c 0.166,0.006 0.32,0.08 0.427,0.203 0.089,0.104 0.129,0.235 0.134,0.367 l 3.738,-0.199 h 0.031 c 0.15,0 0.297,0.057 0.406,0.162 0.119,0.112 0.186,0.268 0.186,0.43 v 30.861 c 0,0.178 -0.079,0.346 -0.215,0.457" /></g></g></g><g
       id="g104"><g
         id="g106"><g
           id="g112"><g
             id="g114"><path
               id="path122"
               style="fill:url(#linearGradient120);stroke:none"
               d="m 439.004,498.678 c -0.319,-0.077 -0.59,-0.285 -0.75,-0.571 v 0 l -4.151,-7.413 c -0.224,-0.401 -0.199,-0.895 0.069,-1.269 v 0 l 1.027,-1.437 -2.879,-4.711 h -10e-4 l -4.19,-6.858 c -0.002,0 0,-10e-4 -0.002,-0.003 v 0 l -7.689,-12.584 -1.05,-1.717 v -0.001 l -3.206,-5.248 v -10e-4 l -4.217,-6.9 c -0.002,-10e-4 0,-10e-4 -0.002,-0.002 v 0 l -6.643,-10.873 -2.934,-4.801 c 0,0 0,0 -0.001,-10e-4 v 0 l -9.475,-15.505 c -0.168,-0.276 -0.217,-0.606 -0.135,-0.918 v 0 c 0.08,-0.311 0.284,-0.577 0.563,-0.733 v 0 l 1.48,-0.838 -11.008,-19.058 c 4.354,-0.163 8.713,-0.337 13.067,-0.522 v 0 l 8.367,13.679 0.844,-0.478 c 0.184,-0.104 0.384,-0.154 0.584,-0.154 v 0 c 0.394,0 0.78,0.197 1.004,0.553 v 0 l 8.345,13.228 2.717,4.307 c 0,0 0,0.001 0.002,0.002 v 0 l 4.651,7.372 4.728,7.493 v 10e-4 l 12.584,19.948 0.174,0.276 10.037,15.906 h 2.014 c 0.387,0 0.749,0.189 0.973,0.506 v 0 l 4.15,5.931 c 0.183,0.263 0.253,0.59 0.191,0.905 v 0 c -0.06,0.317 -0.248,0.593 -0.517,0.769 v 0 l -17.79,11.564 c -0.195,0.126 -0.419,0.191 -0.646,0.191 v 0 c -0.095,0 -0.191,-0.011 -0.285,-0.035 m -1.566,-9.744 -0.899,1.258 3.166,5.65 15.698,-10.204 -3.093,-4.419 h -1.728 z m -2.167,-5.377 1.755,2.87 7.271,-4.269 z m -4.294,-7.029 2.954,4.837 14.362,-2.227 -3.951,-6.262 z m -4.717,-7.718 3.43,5.612 13.328,-3.643 -3.024,-4.794 -0.808,-1.279 z m -4.018,-6.577 0.051,0.083 2.693,4.409 12.891,-4.093 -2.467,-3.911 z m -3.385,-5.539 2.095,3.428 13.132,-3.502 -3.842,-6.09 z m -4.152,-6.793 2.914,4.767 11.355,-6.149 -2.324,-3.684 z m -5.397,-8.833 4.149,6.787 11.91,-5.053 -3.502,-5.549 z m -4.14,-6.777 2.863,4.687 12.524,-3.806 -3.313,-5.249 z m -5.239,-8.573 3.977,6.508 12.039,-4.358 -3.514,-5.569 z m -0.038,-9.57 -4.317,2.443 3.068,5.021 12.467,-3.41 -4.649,-7.37 z M 302.203,256.763 c 0,0 -3.657,-6.523 -10.576,-10.774 v 0 c -6.918,-4.248 -19.076,-6.027 -34.295,-5.829 v 0 c -15.22,0.195 -48.924,4.744 -53.471,4.446 v 0 c -4.546,-0.297 -13.441,-8.5 -13.838,-17.494 v 0 c -0.396,-8.993 9.192,-11.662 9.192,-11.662 v 0 c 0,0 18.383,-1.681 32.32,-1.681 v 0 c 13.936,0 53.985,2.871 56.478,5.234 v 0 c 1.077,1.019 3.911,5.342 3.911,5.342 v 0 l 44.664,73.434 c -3.59,0.052 -7.145,0.089 -10.661,0.113 v 0 z" /></g></g></g></g><g
       id="g124"><g
         clip-path="url(#clipPath130)"
         id="g126"><g
           transform="translate(249.0786,241.3447)"
           id="g132"><path
             id="path134"
             style="fill:#ffffff;fill-opacity:1;fill-rule:nonzero;stroke:none"
             d="m 0,0 -8.006,0.814 -1.112,-28.39 8.006,0.371 h 5.189 l 3.781,26.326 z m -31.964,2.207 -7.521,1.449 v -30.861 l 4.349,0.232 z m 0.089,0.832 -3.261,-30.615 10.526,-0.369 h 6.523 l 3.663,28.759 0.043,0.372 -8.895,0.742 z m 17.494,-1.853 -3.41,-29.131 8.673,0.369 1.092,27.867 z m 31.133,-1.557 -3.706,-26.092 -8.969,-0.742 3.855,26.834 z" /></g><g
           transform="translate(261.604,215.4346)"
           id="g136"><path
             id="path138"
             style="fill:#2d2c2e;fill-opacity:1;fill-rule:nonzero;stroke:none"
             d="m 0,0 -7.755,-0.643 3.675,25.59 h 7.624 z m -11.959,25.25 6.618,-0.74 -3.621,-25.211 h -4.058 z m -8.004,0.82 6.822,-0.693 -0.608,-14.861 -0.459,-11.243 -6.817,-0.316 z m -6.425,0.354 5.223,-0.735 -1.049,-26.785 -7.432,-0.318 z m -10.128,-27.867 0.426,9.539 0.854,19.099 7.667,-0.638 -3.566,-28 z m -7.359,29.726 7.457,-0.963 -0.593,-13.276 -0.691,-15.466 -9.302,0.326 z m -7.543,0.565 6.28,-1.209 -3.059,-28.135 -3.221,-0.174 z m 56.093,-2.92 c -0.112,0.131 -0.276,0.205 -0.448,0.205 h -8.821 c -0.273,0 -0.5,-0.19 -0.567,-0.449 l -7.298,0.816 c -0.002,0 -0.003,-0.001 -0.005,0 h -10e-4 l -8.006,0.814 c -0.17,0.024 -0.325,-0.033 -0.449,-0.14 -0.09,-0.078 -0.142,-0.184 -0.172,-0.297 l -5.731,0.807 c -0.012,10e-4 -0.023,-0.003 -0.034,-0.002 v 0.006 l -8.868,0.738 h -10e-4 l -8.598,1.111 c -0.155,0.024 -0.319,-0.023 -0.443,-0.123 -0.126,-0.098 -0.206,-0.244 -0.223,-0.402 l -0.02,-0.191 -6.888,1.327 c -0.175,0.032 -0.353,-0.011 -0.491,-0.125 -0.136,-0.111 -0.215,-0.279 -0.215,-0.457 V -1.295 c 0,-0.162 0.067,-0.318 0.186,-0.43 0.109,-0.105 0.256,-0.162 0.407,-0.162 h 0.032 l 3.736,0.199 c 0.005,-0.132 0.044,-0.263 0.134,-0.367 0.108,-0.123 0.262,-0.197 0.426,-0.203 l 10.526,-0.371 h 0.021 0.001 6.523 c 0.055,0 0.106,0.015 0.156,0.029 0.047,-0.011 0.092,-0.029 0.14,-0.029 h 0.025 l 8.673,0.371 h 0.002 l 8.006,0.371 h 5.161 c 0.017,0 0.033,0 0.049,0.002 l 8.969,0.74 c 0.277,0.024 0.5,0.233 0.539,0.508 l 3.706,26.092 c 0.025,0.172 -0.026,0.344 -0.139,0.473" /></g><g
           transform="translate(282.0127,412.333)"
           id="g140"><path
             id="path142"
             style="fill:#5e5e60;fill-opacity:1;fill-rule:nonzero;stroke:none"
             d="m 0,0 -3.334,11.404 -3.22,-11.437 -11.876,0.353 9.881,-6.597 -4.005,-11.186 9.327,7.359 9.4,-7.265 -4.116,11.144 9.816,6.698 z M 90.196,0.473 78.323,0 74.989,11.404 71.769,-0.033 59.894,0.32 l 9.88,-6.597 -4.005,-11.186 9.328,7.359 9.4,-7.265 -4.117,11.144 z M 59.261,11.428 45.231,1.857 51.116,-14.072 37.679,-3.688 24.347,-14.207 l 5.724,15.99 -14.124,9.428 16.976,-0.504 4.603,16.347 4.766,-16.301 z" /></g><g
           transform="translate(278.6895,422.7729)"
           id="g144"><path
             id="path146"
             style="fill:#ffeb00;fill-opacity:1;fill-rule:nonzero;stroke:none"
             d="m 0,0 -2.786,-9.893 -10.273,0.305 8.548,-5.705 -3.465,-9.678 8.068,6.367 8.133,-6.285 -3.561,9.64 8.49,5.791 -10.27,-0.408 z m 78.322,0 -2.785,-9.893 -10.273,0.305 8.549,-5.705 -3.465,-9.678 8.068,6.367 8.131,-6.285 -3.561,9.64 8.493,5.791 -10.272,-0.408 z m -33.146,0.889 15.367,0.61 -12.705,-8.666 5.328,-14.427 -12.168,9.404 -12.073,-9.525 5.184,14.48 -12.791,8.538 15.373,-0.456 4.168,14.803 z" /></g><g
           transform="translate(267.6782,412.5303)"
           id="g148"><path
             id="path150"
             style="fill:#f0b800;fill-opacity:1;fill-rule:nonzero;stroke:none"
             d="m 0,0 7.214,-4.814 -2.923,-8.168 6.809,5.373 6.863,-5.305 -3.005,8.137 7.167,4.888 -8.668,-0.343 -2.435,8.325 -2.351,-8.349 z M 1.781,-16.473 5.785,-5.287 -4.096,1.309 7.78,0.957 11,12.393 14.334,0.988 l 11.873,0.473 -9.815,-6.695 4.116,-11.145 -9.4,7.266 z M 78.324,0 l 7.213,-4.814 -2.924,-8.168 6.81,5.373 6.864,-5.305 -3.006,8.137 7.166,4.888 -8.668,-0.343 -2.434,8.325 -2.351,-8.349 z m 1.779,-16.473 4.006,11.186 -9.881,6.596 11.875,-0.352 3.221,11.436 3.334,-11.405 11.873,0.473 -9.817,-6.695 4.118,-11.145 -9.401,7.266 z M 34.377,10.892 45.835,3.244 41.191,-9.727 l 10.815,8.534 10.9,-8.426 -4.774,12.924 11.381,7.762 -13.764,-0.546 -3.867,13.222 -3.734,-13.26 z m 4.304,-24.109 5.725,15.988 -14.124,9.429 16.975,-0.504 4.604,16.346 4.765,-16.3 16.969,0.675 -14.029,-9.571 5.885,-15.93 -13.438,10.385 z" /></g><g
           transform="translate(363.3457,489.1074)"
           id="g152"><path
             id="path154"
             style="fill:#ffffff;fill-opacity:1;fill-rule:nonzero;stroke:none"
             d="m 0,0 c 4.76,-8.073 14.191,-16.023 14.191,-16.023 0,0 -8.453,-1.922 -19.976,8.195 -9.039,7.939 -17.315,21.649 -20.264,26.81 l -1.152,2.063 c 0,0 3.228,-40.802 22.271,-66.492 3.862,-5.209 11.053,-11.818 11.053,-11.818 0,0 -6.312,0.248 -20.68,6.612 -21.853,9.68 -26.672,30.395 -27.05,32.179 -0.018,0.082 -0.03,0.137 -0.03,0.137 0,0 0.106,-0.991 0.427,-2.67 0.367,-3.001 0.616,-7.935 -0.991,-11.644 -2.463,-5.698 -7.188,0.156 -21.098,-4.002 -13.57,-4.057 -37.544,-23.72 -51.213,-30.364 -13.795,-6.705 -26.132,-0.906 -26.132,-0.906 0,0 16.902,-1.961 23.312,9.07 24.921,42.885 43.314,26.138 58.174,35.327 14.859,9.187 12.92,33.561 12.92,33.561 0,0 -1.262,-13.603 -14.651,-22.258 -7.224,-4.671 -11.884,-4.903 -17.09,-5.154 17.838,13.617 32.3,33.672 41.965,47.79 5.928,8.658 17.262,7.257 27.309,3.565 C -8.896,28.677 -8.48,14.388 0,0" /></g><g
           transform="translate(418.3828,632.1216)"
           id="g156"><path
             id="path158"
             style="fill:#00539b;fill-opacity:1;fill-rule:nonzero;stroke:none"
             d="m 0,0 c -4.207,5.246 -14.814,9.575 -26.396,10.773 -2.913,0.302 -6.713,0.442 -11.963,0.442 -5.325,0 -11.498,-0.142 -18.647,-0.305 -9.088,-0.209 -19.387,-0.445 -30.65,-0.445 -11.647,0 -22.28,0.254 -32.503,0.775 l -0.668,0.037 c -42.926,0.739 -103.761,13.624 -104.37,13.754 l -1.897,0.405 1.346,-1.397 c 0.275,-0.285 7.517,-7.214 75.255,-26.626 15.916,-4.562 29.562,-12.09 36.56,-16.368 -8.925,3.415 -26.753,9.796 -40.033,11.739 -10.563,1.546 -18.693,2.328 -24.166,2.328 -5.855,0 -8.761,-0.866 -9.148,-2.728 -0.74,-3.564 9.807,-9.211 16.483,-12.398 -13.47,2.602 -51.319,9.41 -78.576,9.41 -7.793,0 -14.221,-0.557 -19.106,-1.656 -29.204,-6.571 -42.574,-35.109 -42.706,-35.397 l -1.73,-3.777 2.718,3.142 c 0.223,0.259 22.637,25.815 50.03,25.815 0.9,0 1.807,-0.028 2.698,-0.083 18.64,-1.144 28.135,-5.588 36.511,-9.509 4.641,-2.172 9.024,-4.224 14.363,-5.369 14.577,-3.131 37.407,-4.06 37.617,-4.067 34.391,-2.431 49.639,-21.284 53.453,-26.912 -1.585,0.666 -4.17,1.711 -7.467,2.906 -1.477,0.755 -9.458,4.521 -21.523,4.521 -5.39,0 -10.873,-0.758 -16.297,-2.252 -7.118,-1.962 -14.902,-7.658 -23.142,-13.69 -11.342,-8.3 -24.197,-17.709 -37.806,-18.984 -3.837,-0.36 -8.446,-0.485 -13.324,-0.617 -19.093,-0.516 -42.854,-1.159 -51.24,-15.844 -12.863,-22.525 -28.887,-36.899 -29.048,-37.042 l -0.694,-0.618 0.853,-0.37 c 0.236,-0.102 6.18,-2.61 19.054,-2.379 8.31,0.152 16.376,4.999 25.717,10.611 9.603,5.77 20.488,12.31 33.798,14.749 5.665,1.037 11.736,1.563 18.044,1.563 20.772,0 40.306,-5.69 50.902,-9.431 -5.036,1.088 -11.903,2.376 -19.587,3.281 l -1.054,0.124 0.447,-0.962 c 1.199,-2.587 4.252,-11.72 -6.804,-20.652 -13.082,-10.568 -42.919,-21.607 -43.218,-21.717 l -3.412,-1.256 3.634,0.106 c 2.508,0.073 61.69,1.939 82.427,15.554 8.983,5.897 19.41,19.009 30.45,32.892 14.272,17.948 29.03,36.508 40.053,37.774 1.258,0.144 2.551,0.218 3.842,0.218 15.482,0 29.332,-10.358 34.568,-14.812 l 0.547,-0.465 0.885,1.564 c 2.678,4.706 5.713,10.039 5.299,18.069 -0.752,14.62 -24.209,24.398 -33.731,27.773 0.618,-0.009 1.293,-0.014 2.02,-0.014 9.959,0 28.684,0.996 42.234,7.678 1.496,0.826 6.393,3.739 6.514,6.54 0.027,0.65 -0.191,1.594 -1.396,2.401 -1.325,0.888 -2.483,1.251 -3.995,1.251 -0.613,0 -1.259,-0.059 -1.945,-0.121 -0.863,-0.078 -1.844,-0.168 -3.019,-0.168 -3.786,0 -8.096,0.952 -13.561,2.995 -17.254,6.449 -40.627,25.194 -47.291,30.706 9.553,-2.048 45.703,-9.547 63.203,-9.547 1.707,0 3.215,0.071 4.484,0.212 17.231,1.912 27.428,5.701 27.975,10.395 C 2.084,-3.656 1.453,-1.814 0,0" /></g><g
           transform="translate(497.6348,604.9097)"
           id="g160"><path
             id="path162"
             style="fill:#ffeb00;fill-opacity:1;fill-rule:nonzero;stroke:none"
             d="m 0,0 c -21.125,8.247 -42.547,11.124 -42.809,11.157 0,0 -0.164,0.008 -0.459,0.008 -1.783,0 -7.92,-0.298 -12.064,-4.126 -2.498,-2.309 -5.045,-5.79 -6.912,-8.596 1.068,2.772 2.496,6.006 3.918,7.827 3.379,4.329 6.051,5.957 6.078,5.973 l 0.316,0.189 -0.029,0.366 c -0.004,0.06 -0.553,6.003 -8.033,6.638 -7.449,0.64 -16.875,-6.346 -22.471,-16.518 -2.67,-4.853 -4.06,-9 -5.287,-12.66 -1.34,-3.992 -2.496,-7.439 -4.934,-10.709 -6.22,-8.341 -26.767,-14.619 -32.916,-16.345 l -1.859,-0.522 1.832,-0.611 c 20.516,-6.851 88.524,-31.468 102.324,-60.607 6.666,-14.08 1.897,-33.309 1.848,-33.502 l -0.441,-1.739 1.39,1.133 c 2.584,2.104 63.309,51.955 63.412,87.877 C 42.957,-26.458 28.121,-10.978 0,0 m -26.236,-106.548 -1.635,1.593 c -4.436,4.32 -11.99,9.518 -22.797,9.754 -4.951,0.106 -11.48,-0.485 -18.441,-1.115 -7.575,-0.686 -15.407,-1.395 -22.721,-1.396 -13.822,0 -21.719,2.635 -24.854,8.294 -4.23,7.643 -0.947,16.092 1.952,23.546 2.562,6.597 4.984,12.828 2.207,17.72 l -0.791,1.39 1.505,-0.539 c 17.831,-6.39 76.649,-29.388 84.922,-57.059 z" /></g><g
           transform="translate(474.8652,506.627)"
           id="g164"><path
             id="path166"
             style="fill:#f0b800;fill-opacity:1;fill-rule:nonzero;stroke:none"
             d="m 0,0 c 6.84,-14.445 1.887,-33.901 1.887,-33.901 0,0 17.375,14.149 33.904,32.805 l 0.002,0.002 c 0,0 19.252,37.467 3.043,50.926 -19.266,15.993 -37.559,-0.223 -60.488,11.637 -22.93,11.861 -20.162,30.385 -20.162,30.385 0,0 -6.127,-19.248 -20.866,-24.455 -4.05,-1.431 -35.545,-5.235 -39.992,-6.483 C -84.512,54.851 -14.063,29.694 0,0 m -89.242,50.423 c 18.496,-6.628 76.385,-29.345 84.554,-56.67 -1.931,1.88 -4.525,3.993 -7.777,5.786 v 0 L -27.188,11.26 c -12.158,9.68 -49.48,22.515 -62.111,26.692 1.483,4.571 2.127,8.827 0.057,12.471" /></g><g
           transform="translate(391.8164,621.5967)"
           id="g168"><path
             id="path170"
             style="fill:#008ecb;fill-opacity:1;fill-rule:nonzero;stroke:none"
             d="m 0,0 c -14.846,-1.167 -44.166,2.705 -44.166,2.705 0,0 27.73,-5.249 43.529,-4.984 15.801,0.265 24.815,7.847 24.815,7.847 C 24.178,5.568 14.846,1.167 0,0 m -62.359,-64.546 c -13.256,-1.262 -19.36,-16.233 -30.629,-29.273 -11.271,-13.04 -32.499,-22.244 -32.499,-22.244 0,0 18.565,4.15 28.257,11.267 9.691,7.116 25.593,26.389 34.884,31.458 9.293,5.069 24.51,-2.401 24.51,-2.401 0,0 -11.268,12.454 -24.523,11.193 m -32.429,51.963 c 0,0 -10.948,3.559 -23.105,5.634 -12.156,2.076 9.192,-12.03 9.192,-12.03 0,0 -13.555,0.987 -27.723,2.146 -12.188,0.998 -50.692,4.547 -50.692,4.547 0,0 58.845,-7.794 73.671,-10.081 14.825,-2.288 31.784,-7.709 31.784,-7.709 0,0 -19.526,13.233 -25.427,16.307 -3.985,2.076 12.3,1.186 12.3,1.186 m -57.5,-115.637 c 0,0 1.483,-8.599 -2.668,-12.75 -4.151,-4.152 -24.562,-16.308 -24.562,-16.308 0,0 27.676,7.709 29.751,14.528 2.076,6.82 -2.521,14.53 -2.521,14.53 m -29.957,32.594 c -16.614,-5.952 -52.472,0 -52.472,0 0,0 31.43,1.208 49.668,5.358 18.237,4.152 36.616,21.349 36.616,21.349 0,0 -17.197,-20.755 -33.812,-26.707" /></g><g
           transform="translate(476.752,472.7256)"
           id="g172"><path
             id="path174"
             style="fill:#2d2c2e;fill-opacity:1;fill-rule:nonzero;stroke:none"
             d="m 0,0 c 0,0 4.953,19.457 -1.887,33.901 -14.062,29.695 -84.511,54.851 -102.672,60.916 5.928,1.664 26.866,8.028 33.231,16.561 4.764,6.389 4.715,13.348 10.265,23.438 5.551,10.09 14.836,16.813 21.901,16.213 7.066,-0.599 7.492,-6.093 7.492,-6.093 0,0 -2.738,-1.628 -6.242,-6.118 -2.916,-3.738 -5.789,-13.063 -5.789,-13.063 0,0 4.974,8.706 9.654,13.032 4.682,4.325 12.092,3.961 12.092,3.961 0,0 85.275,-11.201 85.148,-55.329 C 63.09,51.365 0,0 0,0 m -29.771,37.577 c -18.35,0.399 -57.659,-8.704 -65.51,5.476 -7.742,13.986 10.349,30.363 4.152,41.272 18.496,-6.628 76.385,-29.346 84.555,-56.671 -4.358,4.244 -12.074,9.679 -23.197,9.923 m -74.567,17.527 c -5.814,4.947 -21.656,16.707 -38.861,14.731 -19.676,-2.26 -49.926,-57.083 -70.761,-70.76 -20.835,-13.679 -82.119,-15.456 -82.119,-15.456 0,0 30.075,11.06 43.387,21.812 11.49,9.284 8.109,18.905 6.969,21.363 15.908,-1.874 28.132,-5.346 28.132,-5.346 0,0 -39.886,17.999 -77.528,11.105 -26.114,-4.784 -42.654,-25.044 -59.421,-25.349 -12.884,-0.237 -18.807,2.329 -18.807,2.329 0,0 16.104,14.312 29.169,37.192 10.381,18.179 45.569,14.426 64.105,16.164 23.606,2.213 44.214,28.054 61.05,32.693 22.107,6.093 37.352,-2.22 37.439,-2.249 5.698,-2.062 9.204,-3.654 9.204,-3.654 0,0 -13.801,25.897 -54.925,28.803 0,0 -22.839,0.899 -37.534,4.055 -14.697,3.154 -21.716,13.096 -50.962,14.891 -29.248,1.796 -53.214,-25.935 -53.214,-25.935 0,0 13.042,28.483 42.297,35.065 29.255,6.58 102.429,-8.75 102.429,-8.75 0,0 -53.941,23.411 11.868,13.786 18.478,-2.704 45.474,-13.902 45.474,-13.902 0,0 -18.296,12.964 -41.752,19.686 -68.364,19.592 -74.991,26.469 -74.991,26.469 0,0 61.001,-13.018 104.484,-13.767 0.038,-0.001 0.072,0 0.109,-0.001 0.18,-0.01 0.355,-0.025 0.536,-0.035 42.764,-2.181 78.655,1.096 93.735,-0.465 15.082,-1.56 28.56,-8.555 27.738,-15.589 -0.486,-4.169 -10.301,-7.971 -27.451,-9.874 -17.149,-1.903 -69.847,9.836 -69.847,9.836 0,0 28.753,-24.669 49.308,-32.352 16.115,-6.023 17.515,-0.621 22.398,-3.895 4.071,-2.728 -4.035,-7.356 -5.074,-7.929 -18.832,-9.285 -48.045,-7.458 -48.045,-7.458 0,0 36.303,-10.773 37.217,-28.529 0.432,-8.403 -3.063,-13.908 -5.756,-18.685 m -9.068,-38.722 c 4.76,-8.073 14.191,-16.024 14.191,-16.024 0,0 -8.453,-1.921 -19.976,8.196 -9.039,7.939 -17.315,21.649 -20.264,26.81 l -1.152,2.063 c 0,0 3.228,-40.802 22.271,-66.492 3.861,-5.209 11.053,-11.818 11.053,-11.818 0,0 -6.313,0.248 -20.68,6.612 -21.853,9.68 -26.673,30.395 -27.051,32.179 -0.017,0.082 -0.029,0.137 -0.029,0.137 0,0 0.105,-0.991 0.427,-2.67 0.367,-3.001 0.616,-7.935 -0.991,-11.644 -2.463,-5.698 -7.188,0.156 -21.098,-4.002 -13.57,-4.057 -37.545,-23.72 -51.213,-30.364 -13.795,-6.705 -26.132,-0.906 -26.132,-0.906 0,0 16.902,-1.961 23.312,9.07 24.921,42.885 43.314,26.138 58.174,35.326 14.859,9.188 12.919,33.562 12.919,33.562 0,0 -1.261,-13.604 -14.65,-22.258 -7.225,-4.671 -11.884,-4.904 -17.09,-5.155 17.838,13.618 32.3,33.673 41.965,47.791 5.928,8.658 17.262,7.257 27.309,3.564 -0.192,-5.3 0.224,-19.589 8.705,-33.977 m -167.623,10.347 c 0.34,0.056 0.682,0.105 1.023,0.156 z M -89.77,127.891 c 6.311,-1.144 9.284,7.348 10.334,11.395 3.79,0.381 6.661,0.824 6.661,0.824 0,0 -1.496,-17.82 -16.446,-16.751 -14.951,1.07 -15.129,16.703 -15.129,16.703 0,0 4.983,-0.733 10.321,-1.103 0.951,-1.989 1.396,-4.559 -2.192,-5.175 -0.658,-0.114 -1.785,-4.401 6.451,-5.893 M 70.516,89.045 c -3.149,45.049 -87.077,56.538 -94.61,57.479 -2.552,4.095 -7.092,10.102 -11.931,10.503 -3.307,0.274 -9.561,-0.633 -16.135,-4.11 v 0 c 4.601,6.996 -8.219,15.7 -28.977,20.384 -20.756,4.681 -83.969,2.98 -134.68,7.875 -50.711,4.894 -90.545,24.183 -90.545,24.183 0,0 10.101,-21.661 22.526,-33.425 8.148,-7.717 18.247,-14.382 24.254,-18.07 -27.2,1.802 -35.973,3.203 -56.525,0.329 -63.739,-8.91 -65.418,-74.103 -65.418,-74.103 0,0 22.63,42.926 51.425,45.981 22.732,2.412 51.389,-12.673 62.451,-19.133 -7.443,-1.564 -14.996,-2.756 -21.767,-3.087 -25.501,-1.253 -41.022,5.48 -41.022,5.48 0,0 22.231,-16.338 45.802,-15.012 17.943,1.012 34.375,6.363 51.387,7.756 -6.005,-8.657 -19.651,-24.057 -41.801,-26.175 -31.046,-2.967 -41.141,10.641 -59.22,9.74 -18.077,-0.899 -30.276,-16.205 -30.276,-16.205 0,0 18.376,13.694 27.576,13.089 5.609,-0.368 14.189,-4.727 23.609,-9.249 -7.645,-0.016 -16.763,-1.238 -25.156,-5.508 -19.397,-9.87 -25.334,-37.988 -38.349,-49.396 -13.013,-11.409 -32.245,-17.095 -32.245,-17.095 0,0 25.287,1.292 47.79,-5.423 26.112,-7.793 42.37,20.563 72.021,29.061 2.642,0.757 5.384,1.345 8.184,1.8 0.648,0.055 31.241,2.579 28.653,-4.617 -2.616,-7.272 -7.625,-10.286 -14.655,-14.81 -25.695,-16.537 -65.847,-27.694 -65.847,-27.694 0,0 69.369,-5.025 110.155,4.58 -5.971,-7.021 -10.301,-15.481 -15.509,-22.801 -8.696,-12.223 -65.844,3.074 -65.844,3.074 0,0 46.853,-31.323 65.302,-29.147 18.449,2.172 41.149,26.408 61.795,35.261 20.646,8.854 41.994,-8.572 41.994,-8.572 0,0 -0.028,0.036 -0.035,0.046 20.234,-15.612 48.457,-10.818 48.457,-10.818 0,0 -14.584,6.052 -25.332,19.469 -8.104,10.116 -7.461,23.732 -6.655,29.819 1.397,-1.259 2.858,-2.434 4.393,-3.487 13.879,-9.516 34.359,-4.828 34.359,-4.828 0,0 -19.5,12.041 -26.07,25.188 -4.68,9.361 -3.313,20.676 -2.176,26.286 0.678,-0.395 1.291,-0.764 1.865,-1.114 0.553,-1.157 1.34,-2.37 2.446,-3.67 10.468,-12.333 51.39,-3.956 71.966,-5.087 18.549,-1.021 25.284,-13.881 26.43,-16.403 -0.674,-20.906 -16.353,-46.818 -16.353,-46.818 0,0 95.591,71.307 92.293,118.474" /></g><g
           transform="translate(450.2773,602.3145)"
           id="g176"><path
             id="path178"
             style="fill:#2d2c2e;fill-opacity:1;fill-rule:nonzero;stroke:none"
             d="m 0,0 c -3.775,-0.821 -11.617,-7.887 -10.043,-9.594 3.398,-3.677 9.752,2.196 13.973,2.995 4.22,0.802 17.427,0.765 17.427,0.765 C 21.357,-5.834 8.773,1.91 0,0" /></g><g
           transform="translate(105.9302,342.9971)"
           id="g180"><path
             id="path182"
             style="fill:#008ecb;fill-opacity:1;fill-rule:nonzero;stroke:none"
             d="m 0,0 16.045,1.327 1.327,-16.045 -16.045,-1.327 0.659,-7.976 16.045,1.326 1.327,-16.045 -16.045,-1.326 c -2.201,-0.183 -4.313,0.058 -6.337,0.721 -2.025,0.663 -3.83,1.668 -5.419,3.014 -1.588,1.346 -2.876,2.962 -3.863,4.851 -0.987,1.886 -1.571,3.931 -1.753,6.131 l -2.653,32.091 c -0.183,2.2 0.058,4.312 0.722,6.337 0.663,2.024 1.668,3.831 3.013,5.419 1.346,1.588 2.962,2.876 4.851,3.863 1.887,0.987 3.931,1.572 6.132,1.753 L 14.051,25.44 15.378,9.396 -0.667,8.069 Z" /></g><g
           transform="translate(149.7827,306.0195)"
           id="g184"><path
             id="path186"
             style="fill:#008ecb;fill-opacity:1;fill-rule:nonzero;stroke:none"
             d="M 0,0 -4.142,64.267 11.925,65.302 16.067,1.035 Z" /></g><g
           transform="translate(228.8296,320.1992)"
           id="g188"><path
             id="path190"
             style="fill:#008ecb;fill-opacity:1;fill-rule:nonzero;stroke:none"
             d="m 0,0 c -0.737,-1.999 -1.807,-3.767 -3.209,-5.305 -1.403,-1.539 -3.066,-2.766 -4.988,-3.683 -1.924,-0.918 -3.987,-1.428 -6.192,-1.53 l -7.996,-0.368 -16.083,-0.741 -0.741,16.083 16.083,0.741 7.996,0.368 -0.369,7.997 -7.996,-0.37 c -2.205,-0.101 -4.308,0.231 -6.308,0.999 -2.001,0.767 -3.769,1.837 -5.305,3.209 -1.537,1.371 -2.765,3.019 -3.682,4.942 -0.918,1.923 -1.427,3.987 -1.528,6.192 l -0.373,8.088 c -0.102,2.205 0.216,4.307 0.952,6.307 0.737,1.998 1.807,3.766 3.21,5.304 1.403,1.538 3.064,2.767 4.987,3.684 1.922,0.918 3.987,1.428 6.192,1.529 l 7.996,0.368 16.083,0.742 0.741,-16.083 -16.083,-0.742 -7.995,-0.368 0.372,-8.088 7.996,0.369 c 2.205,0.102 4.307,-0.216 6.306,-0.953 1.998,-0.737 3.767,-1.806 5.306,-3.209 1.538,-1.403 2.766,-3.066 3.683,-4.988 0.918,-1.923 1.427,-3.986 1.529,-6.191 L 0.953,6.307 C 1.054,4.102 0.736,1.998 0,0" /></g><g
           transform="translate(278.0293,360.1338)"
           id="g192"><path
             id="path194"
             style="fill:#008ecb;fill-opacity:1;fill-rule:nonzero;stroke:none"
             d="m 0,0 -8.002,-0.17 0.34,-16.096 8.002,0.169 z m -0.34,16.096 c 2.208,0.047 4.3,-0.324 6.281,-1.11 1.979,-0.786 3.721,-1.899 5.224,-3.34 1.502,-1.441 2.689,-3.133 3.558,-5.078 0.869,-1.946 1.327,-4.021 1.374,-6.228 l 1.02,-48.289 -16.096,-0.341 -0.341,16.097 -8.002,-0.169 0.34,-16.097 -16.096,-0.34 -1.021,48.289 c -0.046,2.208 0.324,4.301 1.11,6.281 0.786,1.979 1.9,3.721 3.341,5.224 1.44,1.503 3.132,2.689 5.077,3.558 1.945,0.869 4.021,1.327 6.229,1.374 z" /></g><g
           transform="translate(343.7832,328.3125)"
           id="g196"><path
             id="path198"
             style="fill:#008ecb;fill-opacity:1;fill-rule:nonzero;stroke:none"
             d="M 0,0 0.314,32.198 -7.689,32.276 -8.004,0.078 Z m 0.471,48.298 c 2.207,-0.022 4.287,-0.456 6.244,-1.303 1.953,-0.848 3.66,-2.015 5.117,-3.501 1.457,-1.485 2.592,-3.215 3.4,-5.184 0.809,-1.972 1.202,-4.061 1.18,-6.269 L 16.1,-0.157 c -0.022,-2.208 -0.457,-4.289 -1.305,-6.243 -0.846,-1.956 -2.014,-3.662 -3.5,-5.119 -1.486,-1.458 -3.215,-2.59 -5.184,-3.399 -1.972,-0.81 -4.06,-1.203 -6.269,-1.182 l -8.002,0.079 -16.1,0.157 0.627,64.396 16.1,-0.156 z" /></g><g
           transform="translate(416.8984,326.3662)"
           id="g200"><path
             id="path202"
             style="fill:#008ecb;fill-opacity:1;fill-rule:nonzero;stroke:none"
             d="m 0,0 -0.602,-16.089 -16.087,0.602 c -2.207,0.082 -4.276,0.573 -6.206,1.474 -1.931,0.901 -3.603,2.114 -5.019,3.64 -1.416,1.525 -2.502,3.284 -3.256,5.277 -0.754,1.992 -1.09,4.091 -1.008,6.298 l 1.803,48.267 16.088,-0.602 -1.803,-48.265 z" /></g><g
           transform="translate(459.2246,348.3037)"
           id="g204"><path
             id="path206"
             style="fill:#008ecb;fill-opacity:1;fill-rule:nonzero;stroke:none"
             d="m 0,0 16.072,-0.968 -0.968,-16.07 -16.071,0.967 -0.48,-7.99 16.07,-0.966 -0.967,-16.072 -16.07,0.967 c -2.205,0.133 -4.262,0.672 -6.172,1.616 -1.91,0.945 -3.553,2.196 -4.934,3.753 -1.38,1.558 -2.425,3.341 -3.134,5.351 -0.709,2.008 -0.996,4.115 -0.864,6.319 l 1.934,32.142 c 0.133,2.204 0.672,4.26 1.615,6.17 0.946,1.909 2.196,3.554 3.754,4.935 1.559,1.381 3.34,2.426 5.35,3.134 2.008,0.709 4.115,0.997 6.32,0.864 L 17.525,23.185 16.559,7.114 0.486,8.081 Z" /></g><g
           transform="translate(525.4199,351.6445)"
           id="g208"><path
             id="path210"
             style="fill:#008ecb;fill-opacity:1;fill-rule:nonzero;stroke:none"
             d="m 0,0 -7.975,0.682 -0.689,-8.067 7.976,-0.681 z m 15.354,-9.437 c -0.247,-2.873 -1.176,-5.471 -2.79,-7.794 1.196,-2.566 1.668,-5.314 1.418,-8.248 l -2.052,-24.016 -16.041,1.371 2.052,24.017 -7.974,0.68 -2.053,-24.015 -16.041,1.37 4.111,48.125 1.371,16.041 16.041,-1.37 7.975,-0.682 C 3.572,15.854 5.613,15.264 7.5,14.271 9.383,13.28 10.998,11.987 12.338,10.396 13.68,8.804 14.68,6.994 15.338,4.969 15.996,2.941 16.23,0.83 16.043,-1.37 Z" /></g><g
           transform="translate(121.2188,317.0645)"
           id="g212"><path
             id="path214"
             style="fill:#00539b;fill-opacity:1;fill-rule:nonzero;stroke:none"
             d="m 0,0 -13.055,-1.079 -2.99,-0.247 -0.247,2.99 -0.66,7.977 -0.247,2.989 2.99,0.248 13.055,1.079 -0.832,10.065 -13.056,-1.08 -2.989,-0.247 -0.247,2.991 -0.668,8.069 -0.247,2.99 2.99,0.247 13.056,1.079 -0.833,10.065 -13.056,-1.079 c -1.788,-0.148 -3.466,-0.626 -4.989,-1.422 -1.533,-0.801 -2.862,-1.859 -3.952,-3.144 -1.086,-1.282 -1.911,-2.767 -2.451,-4.414 -0.543,-1.655 -0.733,-3.342 -0.583,-5.155 l 2.653,-32.091 c 0.148,-1.789 0.626,-3.468 1.422,-4.988 0.802,-1.535 1.859,-2.864 3.144,-3.952 1.285,-1.089 2.77,-1.914 4.413,-2.453 1.279,-0.418 2.623,-0.63 3.993,-0.63 0.381,0 0.772,0.015 1.162,0.047 l 13.057,1.08 z" /></g><g
           transform="translate(162.6631,309.8555)"
           id="g216"><path
             id="path218"
             style="fill:#00539b;fill-opacity:1;fill-rule:nonzero;stroke:none"
             d="M 0,0 -3.756,58.279 -13.835,57.63 -10.08,-0.649 Z" /></g><g
           transform="translate(219.3403,313.918)"
           id="g220"><path
             id="path222"
             style="fill:#00539b;fill-opacity:1;fill-rule:nonzero;stroke:none"
             d="m 0,0 c 1.563,0.746 2.929,1.754 4.063,2.997 1.135,1.245 2.013,2.698 2.611,4.321 0.595,1.613 0.854,3.339 0.771,5.132 l -0.369,7.996 c -0.082,1.791 -0.499,3.487 -1.239,5.037 -0.746,1.563 -1.754,2.93 -2.998,4.064 -1.242,1.133 -2.696,2.012 -4.322,2.611 -1.414,0.521 -2.918,0.785 -4.466,0.785 -0.22,0 -0.441,-0.005 -0.663,-0.015 l -7.996,-0.368 -2.997,-0.138 -0.138,2.997 -0.373,8.088 -0.138,2.996 2.997,0.139 7.995,0.368 13.087,0.602 -0.466,10.09 -13.086,-0.603 -7.995,-0.369 c -1.794,-0.082 -3.488,-0.499 -5.037,-1.239 -1.562,-0.745 -2.929,-1.753 -4.064,-2.998 -1.135,-1.243 -2.013,-2.697 -2.612,-4.321 -0.602,-1.635 -0.854,-3.314 -0.77,-5.131 l 0.373,-8.087 c 0.082,-1.794 0.499,-3.489 1.239,-5.039 0.74,-1.553 1.74,-2.896 2.971,-3.995 1.26,-1.125 2.733,-2.015 4.381,-2.646 1.414,-0.544 2.915,-0.818 4.465,-0.818 0.21,0 0.421,0.005 0.632,0.015 l 7.996,0.369 2.997,0.138 0.138,-2.997 0.368,-7.996 0.139,-2.997 -2.997,-0.138 -7.996,-0.369 -13.086,-0.602 0.465,-10.09 13.086,0.604 7.996,0.368 C -3.221,-1.156 -1.573,-0.75 0,0" /></g><g
           transform="translate(278.4331,341.0381)"
           id="g224"><path
             id="path226"
             style="fill:#00539b;fill-opacity:1;fill-rule:nonzero;stroke:none"
             d="m 0,0 -8.002,-0.169 -3,-0.063 -0.063,2.999 -0.34,16.095 -0.063,2.999 2.999,0.064 8.002,0.17 2.999,0.064 0.064,-3 0.34,-16.096 0.063,-3 z m 3.276,-13.034 0.277,-13.098 10.097,0.214 -0.957,45.29 c -0.038,1.818 -0.402,3.477 -1.113,5.068 -0.706,1.58 -1.681,2.971 -2.896,4.137 -1.214,1.163 -2.645,2.077 -4.254,2.717 -1.507,0.598 -3.123,0.901 -4.802,0.901 -0.103,0 -0.205,-10e-4 -0.308,-0.003 l -8.003,-0.169 c -1.795,-0.038 -3.5,-0.413 -5.067,-1.114 -1.581,-0.706 -2.972,-1.68 -4.136,-2.894 -1.165,-1.214 -2.079,-2.646 -2.718,-4.255 -0.644,-1.619 -0.938,-3.29 -0.899,-5.111 l 0.957,-45.29 10.098,0.213 -0.277,13.098 -0.063,2.999 2.999,0.063 8.002,0.169 2.999,0.064 z" /></g><g
           transform="translate(347.0977,360.4814)"
           id="g228"><path
             id="path230"
             style="fill:#00539b;fill-opacity:1;fill-rule:nonzero;stroke:none"
             d="m 0,0 -0.314,-32.198 -0.03,-3 -3,0.029 -8.004,0.078 -3,0.029 0.03,3 0.314,32.199 0.029,3 3,-0.03 8.004,-0.078 3,-0.029 z m 6.377,9.225 c -1.18,1.201 -2.582,2.16 -4.172,2.849 -1.598,0.692 -3.26,1.037 -5.078,1.055 l -8.004,0.078 -13.1,0.127 -0.568,-58.397 13.1,-0.127 8.002,-0.079 0.142,-0.001 c 1.742,0 3.41,0.323 4.957,0.958 1.602,0.658 3.024,1.588 4.225,2.766 1.203,1.18 2.16,2.581 2.848,4.168 0.683,1.578 1.039,3.286 1.056,5.081 l 0.313,32.198 C 10.115,1.721 9.803,3.39 9.143,5.002 8.484,6.603 7.555,8.023 6.377,9.225" /></g><g
           transform="translate(397.6992,324.082)"
           id="g232"><path
             id="path234"
             style="fill:#00539b;fill-opacity:1;fill-rule:nonzero;stroke:none"
             d="M 0,0 0.111,2.998 1.803,48.266 -8.291,48.643 -9.98,3.374 c -0.067,-1.794 0.207,-3.518 0.814,-5.123 0.613,-1.619 1.504,-3.064 2.648,-4.299 1.163,-1.252 2.5,-2.221 4.09,-2.962 1.557,-0.726 3.254,-1.129 5.049,-1.195 l 13.092,-0.489 0.377,10.092 -13.092,0.49 z" /></g><g
           transform="translate(459.6426,369.4873)"
           id="g236"><path
             id="path238"
             style="fill:#00539b;fill-opacity:1;fill-rule:nonzero;stroke:none"
             d="m 0,0 c -1.48,0 -2.922,-0.243 -4.283,-0.725 -1.656,-0.583 -3.082,-1.417 -4.362,-2.549 -1.257,-1.117 -2.285,-2.469 -3.052,-4.021 -0.772,-1.56 -1.199,-3.203 -1.311,-5.02 l -1.933,-32.142 c -0.108,-1.792 0.127,-3.522 0.697,-5.141 0.576,-1.632 1.435,-3.099 2.551,-4.358 1.132,-1.278 2.447,-2.276 4.019,-3.054 1.541,-0.761 3.231,-1.203 5.022,-1.311 l 13.076,-0.786 0.607,10.082 -13.076,0.787 -2.996,0.179 0.182,2.996 0.48,7.989 0.18,2.994 2.994,-0.181 13.076,-0.786 0.608,10.081 -13.077,0.788 -2.994,0.18 0.18,2.995 0.486,8.081 0.18,2.994 2.994,-0.18 13.078,-0.787 0.606,10.082 -13.077,0.788 C 0.568,-0.009 0.283,0 0,0" /></g><g
           transform="translate(528.4102,351.3896)"
           id="g240"><path
             id="path242"
             style="fill:#00539b;fill-opacity:1;fill-rule:nonzero;stroke:none"
             d="m 0,0 -0.689,-8.066 -0.254,-2.99 -2.991,0.255 -7.976,0.682 -2.988,0.256 0.255,2.989 0.69,8.066 0.256,2.989 2.988,-0.255 7.975,-0.682 2.988,-0.256 z m 9.373,-8.927 0.69,8.068 c 0.154,1.813 -0.032,3.5 -0.569,5.156 -0.535,1.647 -1.357,3.135 -2.439,4.42 -1.086,1.288 -2.412,2.348 -3.944,3.154 -1.541,0.812 -3.174,1.281 -4.986,1.437 l -7.975,0.681 -13.052,1.115 -1.116,-13.052 -3.855,-45.136 10.064,-0.859 1.795,21.027 0.256,2.988 2.988,-0.255 7.975,-0.68 2.99,-0.255 -0.256,-2.989 -1.796,-21.029 10.064,-0.86 1.797,21.028 c 0.205,2.422 -0.17,4.621 -1.15,6.725 l -0.727,1.561 0.982,1.416 c 1.323,1.905 2.063,3.978 2.264,6.339" /></g><g
           transform="translate(104.521,362.9326)"
           id="g244"><path
             id="path246"
             style="fill:#ffffff;fill-opacity:1;fill-rule:nonzero;stroke:none"
             d="m 0,0 c -6.158,-0.413 -11.03,-5.526 -11.03,-11.79 0,-0.616 0.062,-1.216 0.153,-1.806 C -10.057,-7.308 -5.775,-2.123 0,0" /></g><g
           transform="translate(203.6875,369.7305)"
           id="g248"><path
             id="path250"
             style="fill:#ffffff;fill-opacity:1;fill-rule:nonzero;stroke:none"
             d="m 0,0 c -6.158,-0.413 -11.03,-5.526 -11.03,-11.79 0,-0.616 0.062,-1.216 0.153,-1.806 C -10.057,-7.308 -5.775,-2.123 0,0" /></g><g
           transform="translate(269.4375,371.6201)"
           id="g252"><path
             id="path254"
             style="fill:#ffffff;fill-opacity:1;fill-rule:nonzero;stroke:none"
             d="m 0,0 c -6.158,-0.413 -11.03,-5.526 -11.03,-11.79 0,-0.616 0.062,-1.216 0.153,-1.806 C -10.057,-7.308 -5.775,-2.123 0,0" /></g><g
           transform="translate(459.2129,368.2041)"
           id="g256"><path
             id="path258"
             style="fill:#ffffff;fill-opacity:1;fill-rule:nonzero;stroke:none"
             d="m 0,0 c -6.158,-0.413 -11.031,-5.526 -11.031,-11.79 0,-0.616 0.062,-1.216 0.152,-1.806 C -10.059,-7.308 -5.775,-2.123 0,0" /></g><g
           transform="translate(154.7715,366.751)"
           id="g260"><path
             id="path262"
             style="fill:#ffffff;fill-opacity:1;fill-rule:nonzero;stroke:none"
             d="M 0,0 -4.75,-0.5 -3.917,-15.583 -3,-1.929 Z" /></g><g
           transform="translate(329.998,371.6201)"
           id="g264"><path
             id="path266"
             style="fill:#ffffff;fill-opacity:1;fill-rule:nonzero;stroke:none"
             d="m 0,0 -4.771,-0.205 -0.102,-15.106 1.76,13.572 z" /></g><g
           transform="translate(395.8418,370.6113)"
           id="g268"><path
             id="path270"
             style="fill:#ffffff;fill-opacity:1;fill-rule:nonzero;stroke:none"
             d="m 0,0 -4.775,0.012 -0.788,-15.085 2.374,13.477 z" /></g><g
           transform="translate(511.916,363.7148)"
           id="g272"><path
             id="path274"
             style="fill:#ffffff;fill-opacity:1;fill-rule:nonzero;stroke:none"
             d="M 0,0 -4.764,0.33 -6.553,-14.669 -3.287,-1.38 Z" /></g></g></g></g></svg>